<svg xmlns="http://www.w3.org/2000/svg" width="20" height="20" viewBox="0 0 5.292 5.292">
  <path d="M2.373.022a.094.094 0 0 0-.04.002L1.445.22a.114.114 0 0 0-.09.117l.046.574a1.72 1.72 0 0 0-.387.322l-.538-.089a.112.112 0 0 0-.124.08l-.272.864a.112.112 0 0 0 .057.136l.442.207a1.72 1.72 0 0 0 .122.586l-.304.372a.111.111 0 0 0 .005.148l.613.668c.038.043.101.048.146.019l.415-.287a1.72 1.72 0 0 0 .538.15l.185.495c.02.05.076.08.131.068l.886-.197a.115.115 0 0 0 .09-.118l-.048-.605c.017-.012.03-.025.045-.037l.012-.008.072.071v.21l1.323 1.322.397-.397L3.885 3.57h-.21l-.063-.063c.024-.026.05-.05.073-.077l.601.101a.113.113 0 0 0 .124-.079l.273-.865a.115.115 0 0 0-.058-.136l-.55-.264a1.76 1.76 0 0 0-.032-.218 1.933 1.933 0 0 0-.064-.218l.387-.465a.115.115 0 0 0-.006-.148L3.747.469a.111.111 0 0 0-.146-.018l-.502.344C2.964.734 2.828.685 2.676.66L2.463.093a.114.114 0 0 0-.09-.07zm-.007 1.521a.794.794 0 0 1 .79.622.794.794 0 0 1-.602.947.794.794 0 0 1-.948-.603.794.794 0 0 1 .603-.947.794.794 0 0 1 .157-.019z" stroke="#fff" stroke-opacity=".392" stroke-width=".26458"/>
</svg>
